PathFileType	4	(X/Y/Z)	S01_0016_Gait_markers.trc
DataRate	CameraRate	NumFrames	NumMarkers	Units	OrigDataRate	OrigDataStartFrame	OrigNumFrames
250.000000	250.000000	4	54	mm	250.000000	311	356
Frame#	Time	HEAD_ANT			R_HEAD			L_HEAD			C7			R_BACK			L_BACK			STERNUM			R_ACROMION			R_HUM_PROX			R_HUM_ANT			R_HUM_POST			R_ELBOW_LAT			R_ELBOW_MED			R_FOREARM			R_WIRST_LAT			R_WRITS_MED			R_HAND			L_ACROMION			L_HUM_PROX			L_HUM_ANT			L_HUM_POST			L_ELBOW_LAT			L_ELBOW_MED			L_FOREARM			L_WRIST_LAT			L_WIRST_MED			L_HAND			R_ILIAC			SACRUM			L_ILIAC			R_GTROCH			R_THIGH__1			R_THIGH_2			R_THIGH_3			R_THIGH_4			R_SHANK_1			R_SHANK_2			R_SHANK_3			R_SHANK_4			R_HEEL			R_FOOT_LAT			R_FOOT_MED			L_GTROCH			L_THIGH_1			L_THIGH_2			L_THIGH_3			L_THIGH_4			L_SHANK_1			L_SHANK_2			L_SHANK_3			L_SHANK_4			L_HEEL			L_FOOT_LAT			L_FOOT_MED			
		X1	Y1	Z1	X2	Y2	Z2	X3	Y3	Z3	X4	Y4	Z4	X5	Y5	Z5	X6	Y6	Z6	X7	Y7	Z7	X8	Y8	Z8	X9	Y9	Z9	X10	Y10	Z10	X11	Y11	Z11	X12	Y12	Z12	X13	Y13	Z13	X14	Y14	Z14	X15	Y15	Z15	X16	Y16	Z16	X17	Y17	Z17	X18	Y18	Z18	X19	Y19	Z19	X20	Y20	Z20	X21	Y21	Z21	X22	Y22	Z22	X23	Y23	Z23	X24	Y24	Z24	X25	Y25	Z25	X26	Y26	Z26	X27	Y27	Z27	X28	Y28	Z28	X29	Y29	Z29	X30	Y30	Z30	X31	Y31	Z31	X32	Y32	Z32	X33	Y33	Z33	X34	Y34	Z34	X35	Y35	Z35	X36	Y36	Z36	X37	Y37	Z37	X38	Y38	Z38	X39	Y39	Z39	X40	Y40	Z40	X41	Y41	Z41	X42	Y42	Z42	X43	Y43	Z43	X44	Y44	Z44	X45	Y45	Z45	X46	Y46	Z46	X47	Y47	Z47	X48	Y48	Z48	X49	Y49	Z49	X50	Y50	Z50	X51	Y51	Z51	X52	Y52	Z52	X53	Y53	Z53	X54	Y54	Z54	

312	1.244	1758.939575195312	1711.746337890625	-302.0864868164059	1699.672973632812	1661.551147460938	-224.3195495605465	1699.945678710938	1660.641845703125	-370.3145751953122	1559.9609375	1493.5390625	-300.9028320312497	1476.914794921875	1296.908935546875	-243.6673431396482	1485.963012695312	1303.887817382812	-380.8583679199216	1733.443237304688	1325.935791015625	-286.6017456054685	1620.178344726562	1444.417358398438	-125.1200714111325	1562.1826171875	1289.171752929688	-38.32878875732393	1616.6572265625	1200.2041015625	-23.35054206848118	1495.774658203125	1210.459838867188	-32.43978118896457	1535.907470703125	1100.84423828125	-15.91756916046118	1522.694946289062	1095.373168945312	-96.87322235107398	1610.770874023438	910.2005615234375	10.01456737518331	1645.360229492188	837.4468383789062	-22.49453735351544	1571.820068359375	825.353759765625	10.51356124877948	1630.828735351562	753.3433227539062	38.75720214843767	1650.674194335938	1446.278076171875	-462.1842651367184	1642.830322265625	1281.940795898438	-559.8128051757809	1707.723266601562	1203.707153320313	-551.0755615234373	1591.316772460938	1202.740966796875	-594.1628417968748	1656.854736328125	1100.895751953125	-595.919006347656	1597.555786132812	1088.000732421875	-545.1055908203123	1793.21142578125	957.9780273437501	-534.9655151367185	1824.29638671875	912.5740356445314	-470.8070983886716	1802.843505859375	873.7349853515626	-535.214904785156	1887.170776367188	844.2960815429689	-499.3416748046873	1622.799438476562	1044.817016601562	-129.6539001464841	1502.868530273438	1014.665100097656	-301.3450622558591	1625.970092773438	1040.316772460938	-475.3122863769529	1594.601928710938	893.8661499023438	-114.9363784790037	1713.91357421875	627.8150634765625	-129.1614990234374	1761.63525390625	662.0127563476562	-121.2103271484374	1801.347045898438	569.0464477539062	-159.2726440429686	1738.201049804688	552.0240478515625	-152.4008636474608	1806.8564453125	336.7543029785157	-145.5328216552734	1866.236450195312	337.7577819824219	-157.5010375976562	1894.631103515625	257.8508911132813	-173.8930511474609	1832.433959960938	240.1041259765625	-166.5806274414062	1882.016479492188	29.39581298828131	-251.9911193847656	2041.339965820312	60.20013427734379	-164.5245056152344	2081.318603515625	105.3199310302735	-248.3878936767578	1583.654663085938	934.6596679687501	-478.4494628906248	1584.751586914062	644.0447998046876	-459.4667663574217	1540.726440429688	679.0148315429689	-476.247589111328	1495.930908203125	587.7078857421876	-445.9554748535155	1556.513549804688	570.8090820312501	-435.0596618652343	1404.666748046875	331.1098632812501	-427.1091003417968	1345.0263671875	337.3041076660157	-436.1507873535156	1302.985229492188	262.9507751464845	-418.0901794433593	1361.296020507812	240.8569946289063	-402.2271118164062	1176.466796875	117.6033477783204	-350.0921020507812	1330.659790039062	22.08810424804696	-401.80859375	1360.513549804688	26.44515991210944	-292.1669311523438	
313	1.248	1764.600952148438	1711.25146484375	-301.3020629882809	1705.374145507812	1660.813720703125	-223.5213623046871	1705.420776367188	1660.056762695312	-369.629486083984	1565.699340820312	1492.813232421875	-300.2363891601559	1483.057861328125	1296.027587890625	-243.0842285156247	1491.874755859375	1303.128173828125	-380.2629394531247	1739.39892578125	1325.369506835938	-286.1223449707028	1626.064697265625	1443.674072265625	-124.4878540039059	1568.368408203125	1288.28466796875	-37.78855133056612	1623.070434570312	1199.258666992188	-23.180667877197	1502.057983398438	1209.525024414062	-31.92093086242649	1542.279541015625	1099.8134765625	-15.71378517150855	1529.054565429688	1094.606689453125	-96.92285919189429	1616.90087890625	909.2642822265625	10.22532463073751	1651.3154296875	836.39013671875	-22.08302307128888	1577.791259765625	824.404541015625	10.87749767303485	1636.555419921875	752.2274169921875	39.21226882934587	1656.608032226562	1445.645874023438	-461.5662231445309	1648.57666015625	1281.32373046875	-559.1480102539059	1713.414306640625	1203.024780273438	-550.6041870117185	1596.8525390625	1202.090087890625	-593.3336791992185	1662.497680664062	1100.251586914063	-595.2629394531248	1603.10009765625	1087.45751953125	-544.3881225585935	1798.801635742188	956.9709472656251	-534.629943847656	1829.620483398438	911.3842773437501	-470.5155944824216	1808.263671875	872.7868652343751	-535.0802001953123	1892.471801757812	843.1849365234376	-499.2187194824217	1628.844116210938	1044.357177734375	-128.719284057617	1509.3125	1014.061462402344	-300.8819580078123	1632.416015625	1039.780395507812	-474.9702453613279	1601.040893554688	893.3421020507812	-114.6032485961912	1721.13671875	627.6084594726562	-129.7847442626952	1768.660278320312	661.7703857421875	-121.6682815551756	1808.870849609375	569.1143798828125	-159.5514831542968	1745.576416015625	551.6688232421875	-152.8098602294921	1813.021484375	336.1466369628907	-145.943878173828	1872.3623046875	336.6633911132813	-158.1615905761718	1899.859619140625	256.3109741210938	-174.7295989990234	1837.572875976562	239.3592681884766	-166.8995056152343	1884.212768554688	28.74574279785162	-252.1698608398438	2044.109252929688	57.70485305786136	-164.9904174804688	2084.41650390625	102.4763946533204	-248.8700866699218	1589.971557617188	933.8889160156251	-478.1450500488279	1591.1240234375	643.4875488281251	-459.2387695312498	1547.048950195312	678.3951416015626	-475.9305114746092	1502.212280273438	587.2081298828126	-446.2034912109374	1562.743530273438	570.2086791992189	-434.975860595703	1408.936767578125	331.0620117187501	-427.6652832031249	1349.271606445312	337.8875427246095	-436.8375244140624	1306.55126953125	263.9898986816407	-418.6187438964843	1364.529418945312	241.2745971679688	-402.7338867187499	1178.177490234375	120.3113098144532	-351.2200927734375	1331.012084960938	22.18206024169931	-402.1645202636719	1360.558715820312	26.53396224975592	-292.4036865234375	
314	1.252	1770.370971679688	1710.51123046875	-300.4847717285152	1711.074340820312	1660.2421875	-222.8618011474606	1711.312744140625	1659.49755859375	-368.7731933593747	1571.463623046875	1492.036254882812	-299.7259826660153	1489.13720703125	1295.283935546875	-242.4893951416013	1497.88916015625	1302.229125976562	-379.6431579589841	1745.424560546875	1324.834228515625	-285.6284179687497	1631.989135742188	1442.918212890625	-123.9334487915036	1574.546997070312	1287.323120117188	-37.19376754760714	1629.459350585938	1198.45947265625	-22.74871253967259	1508.563232421875	1208.4609375	-31.32950973510715	1549.063110351562	1098.936279296875	-15.14341735839819	1535.40625	1093.865478515625	-96.49670410156226	1623.05126953125	908.0884399414062	10.46310901641866	1657.33544921875	835.061767578125	-21.9313430786131	1583.859130859375	823.55078125	11.2250461578371	1642.390502929688	751.1167602539062	39.30477905273454	1662.312255859375	1445.087768554688	-460.9123840332028	1654.243530273438	1280.810424804688	-558.4696655273434	1719.23779296875	1202.434936523438	-549.9736328124998	1602.759643554688	1201.540283203125	-592.4584350585935	1668.139404296875	1099.55322265625	-594.622375488281	1608.992553710938	1086.824462890625	-543.4653320312498	1804.237915039062	956.0731201171876	-534.2594604492185	1834.992919921875	910.3325195312501	-470.258361816406	1813.437255859375	871.9094848632814	-534.9370117187498	1897.718505859375	842.0089721679689	-499.1224975585936	1634.760375976562	1043.611938476562	-128.7321777343748	1515.73583984375	1013.324340820313	-300.442199707031	1638.819458007812	1039.295776367188	-474.5201416015623	1607.5947265625	892.8139038085938	-114.3010330200193	1728.235229492188	627.1029052734375	-130.4783935546874	1775.688842773438	661.4585571289062	-122.0479354858397	1816.137329101562	569.0438232421875	-159.9795074462889	1753.0986328125	551.6264038085938	-153.2749176025389	1819.163208007812	335.5620422363282	-146.2850189208984	1878.378173828125	335.6121215820313	-158.972198486328	1904.890747070312	255.0674285888672	-175.6014099121093	1842.593139648438	238.5313415527344	-167.0862426757812	1886.197875976562	28.28026199340826	-252.0380096435547	2046.4462890625	54.98429489135746	-165.7460632324219	2087.335693359375	99.40909576416021	-249.6448364257812	1596.325317382812	933.2111206054689	-477.6375427246091	1597.503784179688	642.7136230468751	-459.1112365722655	1553.41845703125	677.8202514648439	-475.525421142578	1508.3486328125	586.6361694335939	-445.9712524414061	1568.917358398438	569.5900878906251	-434.7522583007811	1413.293579101562	331.1679077148439	-427.8468627929687	1353.778198242188	338.3965148925782	-437.0534973144531	1310.088989257812	264.9073486328126	-419.1861267089843	1367.868041992188	241.846893310547	-403.2109985351562	1180.191040039062	123.2284011840821	-352.1597290039062	1331.389892578125	22.3332290649415	-402.2595825195312	1360.562377929688	26.67206382751471	-292.5292358398438	
315	1.256	1775.968139648438	1710.072387695312	-299.6470947265621	1716.825561523438	1659.602294921875	-222.0759582519528	1716.907958984375	1659.027465820312	-368.0186767578122	1577.233642578125	1491.378784179688	-299.0576171874997	1496.298706054688	1294.755981445312	-241.9143371582028	1503.877685546875	1301.46630859375	-378.9682312011716	1751.539916992188	1324.423706054688	-285.0779724121091	1637.819946289062	1442.234619140625	-123.1973876953122	1580.872192382812	1286.518798828125	-36.57970428466768	1635.825073242188	1197.6455078125	-22.40968894958469	1514.897827148438	1207.536743164062	-30.69621276855442	1555.418823242188	1098.0703125	-14.91968727111792	1542.262451171875	1092.6962890625	-95.86367797851538	1629.395874023438	907.1719970703125	10.91684246063252	1663.4912109375	834.04052734375	-21.68825149536114	1590.009033203125	822.7969970703125	11.77116966247577	1648.311279296875	750.135986328125	39.58277893066423	1668.165771484375	1444.581176757812	-460.307464599609	1659.993286132812	1280.178466796875	-557.8197631835934	1725.033813476562	1201.875122070313	-549.309631347656	1608.215087890625	1200.9287109375	-591.636047363281	1673.722778320312	1098.934448242188	-593.8112182617185	1613.04541015625	1086.732788085938	-544.071350097656	1809.585693359375	955.1992187500001	-534.044982910156	1840.23876953125	909.1802368164064	-470.0115966796873	1818.688110351562	870.9484252929689	-534.7474975585935	1902.95458984375	840.9229125976564	-499.0302124023436	1640.667846679688	1043.240478515625	-128.2944183349607	1522.214599609375	1012.738586425781	-300.4039916992185	1644.930786132812	1038.7587890625	-474.1408996582029	1614.142578125	892.4558715820312	-114.1344909667967	1735.467529296875	626.8526000976562	-131.0483551025389	1782.95947265625	661.2273559570312	-122.0306854248045	1823.453735351562	568.788818359375	-160.3945465087889	1760.490966796875	551.3973388671875	-153.7271118164061	1825.236206054688	335.1195983886719	-146.6476898193359	1884.382934570312	334.4937133789063	-159.738540649414	1909.841186523438	253.4826965332032	-176.3632659912109	1847.301635742188	237.7353973388672	-167.3720397949218	1887.328857421875	28.0651588439942	-252.0479431152344	2048.3515625	52.04681015014652	-166.6133880615234	2090.09033203125	95.82341003417974	-250.6776580810547	1602.703002929688	932.5154418945314	-477.4411926269529	1604.093139648438	642.6500854492189	-458.7924499511717	1559.968994140625	677.5021362304689	-475.0639648437498	1514.777221679688	585.8171386718751	-445.9837951660155	1575.347900390625	569.0176391601564	-434.5952148437499	1417.894165039062	331.2688903808595	-428.2422790527343	1358.339721679688	339.1576538085939	-437.4721984863281	1313.905639648438	266.3307495117189	-419.7742614746093	1371.379516601562	242.452865600586	-403.6993103027343	1182.150634765625	126.3945999145509	-353.4287414550781	1331.938354492188	22.53596115112314	-401.8577270507812	1360.680908203125	26.7690219879151	-292.8323974609375	
